<svg width="459" height="169" viewBox="0 0 459 169" xmlns="http://www.w3.org/2000/svg"><title>Group 5</title><path d="M68.625 37.39a49.26 49.26 0 0 1 15.646-2.534c23.882 0 43.802 16.963 48.372 39.497l33.84-6.901C158.719 29.155 124.865.326 84.271.326a83.82 83.82 0 0 0-26.59 4.302L68.625 37.39zM28.694 147.045l22.88-25.867c-10.213-9.045-16.658-22.25-16.658-36.968 0-14.709 6.44-27.913 16.65-36.95L28.672 21.394C11.32 36.762.383 59.208.383 84.21c0 25.013 10.952 47.468 28.311 62.835M132.63 94.118c-4.586 22.516-24.495 39.447-48.358 39.447a49.242 49.242 0 0 1-15.662-2.541L57.649 163.78a83.69 83.69 0 0 0 26.623 4.316c40.562 0 74.397-28.79 82.194-67.05l-33.835-6.93zm146.495 23.144c-5.588 5.436-13.166 8.748-21.533 8.629-5.735-.096-11.049-1.813-15.567-4.674l-11.201 17.848a50.817 50.817 0 0 0 26.467 7.869c14.195.211 27.131-5.365 36.539-14.572l-14.705-15.1zM228.111 98.91c-.127-1.185-.217-2.401-.183-3.628.266-16.653 13.97-29.942 30.611-29.667 9.058.12 17.101 4.27 22.54 10.69L228.11 98.91zm30.734-54.36c-28.246-.433-51.522 22.132-51.949 50.398-.165 10.594 2.897 20.5 8.282 28.734l92.72-39.63c-5.217-22.334-25.08-39.127-49.053-39.502zm78.137-23.067v98.846l17.152 7.109-8.113 19.496-16.963-7.051c-3.814-1.654-6.394-4.173-8.355-7.02-1.883-2.911-3.28-6.892-3.28-12.263V21.483h19.56zm61.834 45.678c3-1.007 6.211-1.547 9.551-1.547 14.576 0 26.734 10.351 29.52 24.11l20.66-4.212c-4.74-23.378-25.407-40.976-50.18-40.976a51.14 51.14 0 0 0-16.225 2.625l6.674 20zm-24.369 66.927l13.96-15.787c-6.235-5.52-10.16-13.582-10.16-22.568 0-8.977 3.925-17.034 10.153-22.55l-13.969-15.787c-10.59 9.38-17.265 23.086-17.265 38.337 0 15.271 6.68 28.972 17.281 38.355m63.44-32.304c-2.801 13.737-14.957 24.08-29.52 24.08a30.13 30.13 0 0 1-9.56-1.553l-6.69 19.993a51.113 51.113 0 0 0 16.25 2.636c24.752 0 45.41-17.575 50.174-40.926l-20.654-4.23z" fill="#1A1919" fill-rule="evenodd"/></svg>