<svg width="219" height="94" viewBox="0 0 219 94" xmlns="http://www.w3.org/2000/svg"><title>Group</title><g fill="none" fill-rule="evenodd"><path d="M0 93.727h188.959c6.192 0 12.237-5.066 13.433-11.258L218.32 0H29.361c-6.19 0-12.237 5.068-13.432 11.258L0 93.728z" fill="#C0272D"/><path d="M190.46 55.203c-1.625 2.415-3.716 3.623-6.271 3.623-1.673 0-2.951-.557-3.833-1.672-.884-1.116-1.325-2.742-1.325-4.856 0-3.647.79-6.69 2.416-9.105 1.603-2.44 3.647-3.67 6.063-3.67 1.766 0 3.09.557 4.018 1.672.93 1.091 1.394 2.694 1.394 4.809 0 3.694-.813 6.76-2.462 9.199zm10.198-30.896c-.418.047-.79.07-1.115.07-.21 0-.465-.023-.79-.07-.35-.023-.79-.115-1.393-.208a139.021 139.021 0 0 1-.93 5.69c-.35 1.998-.766 4.204-1.254 6.62l-1.115 5.413c-.534-1.58-1.418-2.834-2.671-3.74-1.232-.906-2.672-1.346-4.321-1.346-3.554 0-6.528 1.417-8.92 4.227-2.393 2.81-3.578 6.319-3.578 10.5 0 2.974.743 5.365 2.253 7.131 1.51 1.812 3.508 2.694 5.993 2.694 1.604 0 3.09-.301 4.415-.928 1.324-.627 2.647-1.65 3.972-3.02l-.906 3.414c.464-.046.906-.093 1.277-.115.372-.024.698-.047.977-.047.255 0 .556.023.905.047.348.022.72.069 1.139.115a281.292 281.292 0 0 1 3.135-18.514 275.351 275.351 0 0 1 4.344-18.142c-.511.094-.976.163-1.417.21zm-25.46 12.59a5.779 5.779 0 0 0-.604-.045c-1.138 0-2.3.44-3.507 1.347-1.208.906-2.346 2.16-3.415 3.81.116-.86.256-1.673.418-2.44.162-.767.348-1.51.604-2.23-.418.07-.813.093-1.162.14-.371.023-.743.046-1.068.046-.278 0-.581-.023-.93-.047-.348-.047-.742-.07-1.183-.14-.21 3.02-.652 6.551-1.372 10.593-.72 4.043-1.65 8.317-2.787 12.824.72-.094 1.23-.163 1.533-.187.279-.045.51-.045.697-.045.302 0 .65.022 1.022.045.395.047.86.117 1.394.187.836-7.76 1.836-13.033 3.02-15.797 1.16-2.788 2.857-4.18 5.04-4.18.279 0 .605.046.953.092.348.047.79.14 1.348.256a14.89 14.89 0 0 1 .208-2.021c.117-.697.255-1.371.465-2.044-.232-.07-.465-.117-.673-.163zm-22.672 16.866c-.231 1.276-.976 2.416-2.184 3.415-1.208.975-2.507 1.486-3.855 1.486-1.023 0-1.86-.349-2.486-1.023-.65-.65-.953-1.532-.953-2.602 0-1.486.512-2.67 1.557-3.6 1.045-.906 2.718-1.648 4.995-2.16l3.925-.93-1 5.414zm6.388 4.9c-.395.117-.72.21-.93.234a2.142 2.142 0 0 1-.602.092c-.465 0-.814-.14-1.07-.395-.255-.255-.371-.604-.371-1.069 0-.255.024-.557.047-.883.046-.325.115-.673.186-1.045l1.625-8.293c.186-.928.326-1.812.419-2.625.115-.813.162-1.51.162-2.067 0-1.904-.627-3.392-1.905-4.413-1.254-1.045-3.066-1.556-5.435-1.556-1.347 0-2.625.161-3.834.51-1.207.349-2.392.883-3.553 1.58 0 .116 0 .256.023.442 0 .184.023.325.023.395 0 .44-.046.882-.093 1.324-.07.44-.162.906-.28 1.37l.814.162c.628-1.23 1.487-2.184 2.602-2.834 1.093-.65 2.37-.998 3.81-.998 1.277 0 2.277.347 2.997 1.044.719.72 1.068 1.674 1.068 2.928 0 1.277-.14 2.23-.442 2.88-.278.65-.743 1.046-1.37 1.184l-4.02.79c-3.67.697-6.201 1.673-7.664 2.927-1.441 1.209-2.161 2.95-2.161 5.18 0 1.742.534 3.136 1.603 4.158 1.068 1.023 2.533 1.534 4.39 1.534a8.017 8.017 0 0 0 3.694-.883c1.16-.603 2.276-1.532 3.368-2.81.047 1.184.349 2.09.929 2.717.58.627 1.37.93 2.416.93.674 0 1.348-.093 2.022-.303.673-.209 1.394-.533 2.137-.951l-.605-1.255zm-21.58-21.393c-1.324-.326-2.787-.489-4.39-.489-3.786 0-6.922 1.372-9.41 4.113-2.506 2.74-3.761 6.108-3.761 10.128 0 3.113.952 5.62 2.833 7.526 1.882 1.881 4.345 2.834 7.41 2.834 1.279 0 2.533-.163 3.718-.488a14.783 14.783 0 0 0 3.507-1.463c.14-.558.325-1.092.51-1.627.187-.535.42-1.046.65-1.556l-.695-.534c-.767 1.044-1.765 1.858-2.997 2.439a9.095 9.095 0 0 1-3.948.883c-2.068 0-3.671-.675-4.786-1.998-1.115-1.324-1.673-3.23-1.673-5.714 0-3.532.86-6.505 2.602-8.944 1.719-2.463 3.857-3.694 6.364-3.694 1.232 0 2.323.373 3.3 1.093.952.72 1.696 1.741 2.253 3.065l.72-.047c.139-.672.325-1.37.558-2.043.23-.697.51-1.347.836-2.021a13.33 13.33 0 0 0-3.601-1.463zm-16.702-.373a5.748 5.748 0 0 0-.628-.045c-1.114 0-2.3.44-3.507 1.347-1.208.906-2.345 2.16-3.391 3.81.093-.86.232-1.673.395-2.44.162-.767.372-1.51.603-2.23-.395.07-.79.093-1.161.14-.371.023-.72.046-1.07.046-.254 0-.58-.023-.928-.047-.348-.047-.743-.07-1.161-.14-.21 3.02-.674 6.551-1.394 10.593-.697 4.043-1.626 8.317-2.787 12.824.743-.094 1.254-.163 1.532-.187.303-.045.536-.045.72-.045.279 0 .628.022 1.022.045.372.047.838.117 1.394.187.814-7.76 1.813-13.033 2.997-15.797 1.185-2.788 2.857-4.18 5.04-4.18.304 0 .605.046.954.092.372.047.813.14 1.347.256.047-.674.116-1.347.209-2.021.117-.697.279-1.371.465-2.044a8.479 8.479 0 0 0-.651-.163zm-19.257 8.526c-.023.371-.07.813-.116 1.347-.42 0-1.045.023-1.836.046-2.044.023-3.391.047-4.111.047-.604 0-1.836-.023-3.717-.047-.79-.023-1.417-.046-1.882-.046.558-2.532 1.464-4.53 2.765-5.992 1.278-1.465 2.765-2.184 4.436-2.184 1.394 0 2.509.533 3.3 1.556.789 1.046 1.184 2.486 1.184 4.32 0 .28 0 .581-.023.953zm1.998-6.203c-1.51-1.672-3.601-2.532-6.273-2.532-3.646 0-6.643 1.371-9.036 4.112-2.392 2.742-3.578 6.157-3.578 10.222 0 3.159.93 5.69 2.766 7.596 1.858 1.88 4.343 2.834 7.456 2.834 1.324 0 2.602-.21 3.833-.627 1.23-.396 2.532-1.023 3.879-1.883.14-.58.326-1.138.534-1.672.186-.535.395-1.046.628-1.51l-.581-.487c-1.301 1.323-2.578 2.275-3.764 2.856a8.12 8.12 0 0 1-3.717.907c-2.066 0-3.646-.628-4.761-1.858-1.115-1.232-1.672-2.997-1.672-5.274 0-.512.023-.998.045-1.534a266.1 266.1 0 0 0 .14-1.555c1.3 0 2.788-.023 4.506-.07 1.72-.023 2.742-.023 3.043-.023 1.487 0 3.996.023 7.55.093h1.115c.047-.65.07-1.209.117-1.65.023-.465.046-.767.046-.93 0-2.995-.766-5.319-2.276-7.014zM76.798 54.9c-1.603 2.44-3.601 3.648-5.993 3.648-1.813 0-3.183-.558-4.112-1.672-.906-1.14-1.371-2.788-1.371-4.972 0-3.6.813-6.62 2.486-9.06 1.649-2.438 3.717-3.647 6.202-3.647 1.627 0 2.904.604 3.81 1.79.929 1.183 1.394 2.81 1.394 4.9 0 3.578-.79 6.597-2.416 9.014zm4.6-15.54c-1.534-1.742-3.601-2.624-6.203-2.624-1.58 0-3.02.348-4.367.998-1.324.65-2.602 1.672-3.787 3.02l.907-3.415c-.465.047-.907.07-1.28.093-.37.023-.695.046-.95.046-.257 0-.558-.023-.884-.047-.324-.023-.72-.045-1.137-.092a377.32 377.32 0 0 1-3.392 19.721c-1.278 6.25-2.648 11.918-4.09 17.028a20.04 20.04 0 0 1 1.419-.209c.417-.047.789-.07 1.138-.07.186 0 .465.023.79.07.348.046.79.117 1.324.21a299.713 299.713 0 0 1 1.997-11.011 34.76 34.76 0 0 1 .279-1.395l1.069-5.481c.465 1.532 1.323 2.74 2.578 3.693a6.727 6.727 0 0 0 4.135 1.393c3.647 0 6.713-1.393 9.129-4.203 2.416-2.834 3.624-6.366 3.624-10.617 0-2.974-.767-5.343-2.3-7.109zm-23.811-1.882a22.9 22.9 0 0 1-1.231.047c-.371 0-.767-.023-1.162-.047-.418-.047-.836-.07-1.324-.14-.046 2.44-.441 5.669-1.185 9.734-.72 4.066-1.742 8.618-3.043 13.682a28.675 28.675 0 0 1 1.58-.185c.372-.047.65-.047.882-.047.257 0 .58 0 .953.047.348.023.906.092 1.627.185.139-3.02.557-6.503 1.253-10.5.72-3.971 1.72-8.292 2.974-12.915-.441.07-.882.093-1.324.14zm1.672-10.477c-.394-.418-.975-.627-1.695-.627-.721 0-1.278.233-1.72.65-.464.442-.673 1.023-.673 1.743 0 .698.209 1.277.674 1.72.44.464.998.697 1.672.697.65 0 1.232-.257 1.673-.72.464-.465.674-1.023.674-1.697 0-.767-.186-1.348-.605-1.765zm-10.267.535c-.372.046-.65.046-.882.046-.303 0-.674 0-1.07-.046-.395-.024-.905-.093-1.556-.186a74.31 74.31 0 0 1-.395 3.88c-.186 1.3-.488 2.973-.882 5.018l-1.115 5.389c-.21.023-.488.023-.86.023-4.181.116-7.178.163-9.013.163-.882 0-2.741-.023-5.528-.093-1.255-.047-2.23-.07-2.928-.093l.976-4.717.093-.51c.766-3.693 1.51-6.713 2.23-9.06-.65.093-1.185.14-1.602.186-.42.046-.767.046-1.07.046-.208 0-.487 0-.813-.046-.348-.024-.905-.093-1.694-.186-.884 6.319-1.882 12.311-3.044 18.003-1.138 5.691-2.323 10.825-3.601 15.401.698-.093 1.232-.162 1.627-.185.394-.047.72-.047.998-.047.279 0 .628 0 1.023.047.395.046.905.092 1.51.185.3-2.136.58-4.111.882-5.97.279-1.834.58-3.553.882-5.18l1.139-5.413c1.626-.023 3.182-.046 4.715-.046h4.624c.58 0 1.858 0 3.856.023 1.998 0 3.693.023 5.11.023l-1.277 6.435c-.21 1.046-.534 2.44-.953 4.159-.441 1.742-.93 3.717-1.534 5.97a24.168 24.168 0 0 1 1.673-.187c.418-.045.767-.045 1.092-.045.209 0 .442 0 .744.022.279.023.836.093 1.695.21.442-4.322 1.255-9.363 2.393-15.123 1.16-5.76 2.579-11.847 4.273-18.281-.79.093-1.346.162-1.718.186z" fill="#FFF"/></g></svg>