<svg width="186" height="145" viewBox="0 0 186 145" xmlns="http://www.w3.org/2000/svg"><title>Page 1</title><g fill="none" fill-rule="evenodd"><path d="M31.771 129.342a5.615 5.615 0 0 0-1.892-1.243 6.348 6.348 0 0 0-2.398-.443c-.46 0-.937.04-1.433.119-.495.079-.98.219-1.455.419a5.515 5.515 0 0 0-1.356.83c-.429.355-.802.8-1.119 1.339a5.46 5.46 0 0 0-2.076-1.987c-.873-.48-1.872-.72-2.995-.72-.378 0-.769.034-1.172.103a5.393 5.393 0 0 0-1.203.356 4.894 4.894 0 0 0-1.142.689c-.362.29-.692.657-.988 1.1v-1.852H9.355v15.166h3.218v-8.406c0-.644.102-1.217.306-1.718.205-.501.478-.921.82-1.26a3.415 3.415 0 0 1 1.203-.766 4.1 4.1 0 0 1 1.471-.262c1.082 0 1.923.344 2.52 1.029.598.687.896 1.668.896 2.945v8.438h3.218v-8.406c0-.644.102-1.217.306-1.718.205-.501.478-.921.82-1.26a3.415 3.415 0 0 1 1.203-.766 4.1 4.1 0 0 1 1.471-.262c1.082 0 1.923.344 2.52 1.029.598.687.896 1.668.896 2.945v8.438h3.218v-9.53c0-.887-.146-1.7-.437-2.438a5.547 5.547 0 0 0-1.233-1.908m16.85 8.218c-.233.603-.534 1.114-.952 1.532-.394.441-.883.79-1.44 1.022-.557.256-1.184.373-1.858.373-.72 0-1.37-.117-1.928-.373a4.335 4.335 0 0 1-1.44-1.044 4.824 4.824 0 0 1-.883-1.558 5.6 5.6 0 0 1 0-3.763c.208-.58.51-1.114.882-1.532.395-.442.883-.79 1.441-1.046.558-.278 1.208-.394 1.928-.394.673 0 1.3.116 1.858.372.557.255 1.046.58 1.44 1.022.419.44.72.952.953 1.532.21.582.325 1.232.325 1.928 0 .697-.116 1.347-.326 1.929zm.117-9.501v1.834a6.02 6.02 0 0 0-1.952-1.625c-.79-.418-1.718-.605-2.81-.605-1.069 0-2.069.187-2.974.581a7.561 7.561 0 0 0-2.416 1.65 8.091 8.091 0 0 0-1.602 2.531 8.45 8.45 0 0 0-.605 3.206c0 1.161.21 2.23.605 3.207a8.091 8.091 0 0 0 1.602 2.531 7.561 7.561 0 0 0 2.416 1.65 7.388 7.388 0 0 0 2.973.603c1.093 0 2.021-.209 2.811-.604a6.309 6.309 0 0 0 1.953-1.625v1.834h3.32V128.06h-3.32zm18.519 7.552c-.929-.723-2.222-1.206-3.879-1.448l-1.567-.238a14.21 14.21 0 0 1-.982-.182 3.234 3.234 0 0 1-.79-.277 1.51 1.51 0 0 1-.53-.443 1.092 1.092 0 0 1-.199-.665c0-.538.25-.974.752-1.306.501-.333 1.205-.499 2.113-.499.475 0 .942.042 1.401.127.46.084.894.19 1.306.316a9.545 9.545 0 0 1 1.98.855l1.424-2.58c-.792-.507-1.715-.9-2.77-1.18a13.144 13.144 0 0 0-3.373-.419c-.97 0-1.84.113-2.612.34-.77.227-1.427.549-1.97.966-.544.417-.96.926-1.25 1.527-.292.602-.437 1.278-.437 2.027 0 1.224.436 2.214 1.306 2.968.871.755 2.151 1.248 3.84 1.481l1.582.205c.908.127 1.573.33 1.995.61.422.28.634.636.634 1.068 0 .57-.29 1.021-.87 1.354-.582.332-1.442.499-2.582.499a9.966 9.966 0 0 1-1.67-.127 8.434 8.434 0 0 1-1.345-.34 6.547 6.547 0 0 1-1.093-.491 7.97 7.97 0 0 1-.894-.594l-1.536 2.486a8.138 8.138 0 0 0 1.726.997c.601.253 1.192.451 1.773.594.58.142 1.13.237 1.646.285.517.047.971.071 1.362.071 1.087 0 2.06-.122 2.92-.364.861-.243 1.584-.583 2.17-1.022a4.512 4.512 0 0 0 1.345-1.567 4.325 4.325 0 0 0 .467-2.002c0-1.298-.464-2.309-1.393-3.032m21.738-1.281a5.392 5.392 0 0 1 .44-1.51c.21-.463.465-.858.813-1.184.326-.326.721-.58 1.186-.767.465-.185.975-.279 1.58-.279 1.044 0 1.904.35 2.578 1 .65.65 1.068 1.555 1.254 2.74h-7.85zm10.71-1.95c-.35-.976-.837-1.813-1.466-2.51a6.384 6.384 0 0 0-2.275-1.626c-.884-.394-1.835-.58-2.904-.58-1.116 0-2.138.186-3.067.58a6.958 6.958 0 0 0-2.369 1.626c-.674.697-1.184 1.534-1.557 2.51-.372.999-.556 2.066-.556 3.251 0 1.208.184 2.3.58 3.275.371.976.905 1.835 1.602 2.532a6.766 6.766 0 0 0 2.44 1.604 8.549 8.549 0 0 0 3.136.58c1.161 0 2.253-.163 3.298-.488 1.022-.301 2.022-.86 2.951-1.648l-1.65-2.37a7.477 7.477 0 0 1-2.09 1.184 6.69 6.69 0 0 1-2.3.418 5.044 5.044 0 0 1-1.557-.231 4.314 4.314 0 0 1-1.347-.674 4.34 4.34 0 0 1-1.022-1.208 4.81 4.81 0 0 1-.58-1.742h11.195c.024-.21.047-.395.047-.605a5.68 5.68 0 0 0 .024-.65 9.613 9.613 0 0 0-.534-3.228zm42.369 5.18c-.23.603-.534 1.114-.929 1.532-.419.441-.882.79-1.44 1.022-.58.256-1.185.373-1.882.373-.719 0-1.348-.117-1.928-.373a4.03 4.03 0 0 1-1.417-1.044 4.5 4.5 0 0 1-.906-1.558 5.625 5.625 0 0 1 0-3.763c.21-.58.511-1.114.906-1.532a4.03 4.03 0 0 1 1.417-1.046c.58-.278 1.21-.394 1.928-.394.697 0 1.301.116 1.882.372.558.255 1.021.58 1.44 1.022.395.44.698.952.93 1.532.208.582.325 1.232.325 1.928 0 .697-.117 1.347-.326 1.929zm.117-9.501v1.834a6 6 0 0 0-1.952-1.625c-.79-.418-1.719-.605-2.81-.605-1.069 0-2.068.187-2.974.581a7.572 7.572 0 0 0-2.416 1.65 8.091 8.091 0 0 0-1.602 2.531c-.395.976-.58 2.044-.58 3.206 0 1.161.185 2.23.58 3.207a8.091 8.091 0 0 0 1.602 2.531 7.572 7.572 0 0 0 2.416 1.65 7.392 7.392 0 0 0 2.973.603c1.092 0 2.021-.209 2.811-.604a6.286 6.286 0 0 0 1.952-1.625v1.834h3.321V128.06h-3.32zm-60.746 12.135c-.533.2-1.058.301-1.575.301-.338 0-.652-.053-.942-.159a1.95 1.95 0 0 1-.76-.498 2.431 2.431 0 0 1-.515-.879c-.126-.358-.19-.79-.19-1.298v-6.602h5.314v-3.007h-5.314v-4.59h-3.324v4.59h-3.024v3.007h3.024v6.665c0 2.016.477 3.502 1.432 4.457.956.955 2.293 1.433 4.014 1.433.96 0 1.823-.148 2.588-.444.506-.195.975-.418 1.414-.664l-1.131-2.77a8.54 8.54 0 0 1-1.011.458m29.872-12.538c-.93 0-1.768.169-2.517.507-.75.338-1.377 1.15-1.884 1.879v-1.99h-3.004v15.166h3.036v-8.343c0-.644.089-1.22.269-1.726a3.72 3.72 0 0 1 .744-1.282 3.07 3.07 0 0 1 1.14-.791c.443-.18.928-.27 1.456-.27a6.499 6.499 0 0 1 1.963.322l.978-3.166a6.01 6.01 0 0 0-.811-.203 8.247 8.247 0 0 0-1.37-.103m45.995 0c-.93 0-1.768.169-2.517.507-.75.338-1.377 1.15-1.884 1.879v-1.99h-3.004v15.166h3.036v-8.343c0-.644.089-1.22.269-1.726a3.72 3.72 0 0 1 .744-1.282 3.07 3.07 0 0 1 1.14-.791c.443-.18.928-.27 1.456-.27a6.499 6.499 0 0 1 1.963.322l.978-3.166a6.01 6.01 0 0 0-.811-.203 8.247 8.247 0 0 0-1.37-.103m15.332 9.904c-.233.603-.534 1.114-.929 1.532-.417.441-.883.79-1.44 1.022-.58.256-1.186.373-1.882.373-.72 0-1.347-.117-1.928-.373a4.03 4.03 0 0 1-1.417-1.044 4.484 4.484 0 0 1-.905-1.558 5.625 5.625 0 0 1 0-3.763c.208-.58.51-1.114.905-1.532a4.03 4.03 0 0 1 1.417-1.046c.58-.278 1.208-.394 1.928-.394.696 0 1.302.116 1.882.372.556.255 1.023.58 1.44 1.022.395.44.696.952.93 1.532.208.582.325 1.232.325 1.928 0 .697-.117 1.347-.326 1.929zm.117-15.68v8.013a5.767 5.767 0 0 0-1.951-1.625c-.79-.418-1.72-.605-2.811-.605-1.069 0-2.044.187-2.975.581a7.583 7.583 0 0 0-2.416 1.65 8.107 8.107 0 0 0-1.6 2.531c-.397.976-.582 2.044-.582 3.206 0 1.161.186 2.23.582 3.207a8.107 8.107 0 0 0 1.6 2.531 7.583 7.583 0 0 0 2.416 1.65 7.5 7.5 0 0 0 2.975.603c1.09 0 2.02-.209 2.81-.604.768-.417 1.44-.952 1.952-1.625v1.834h3.322V121.88h-3.322zm-53.526 10.248c.422-.427.923-.76 1.504-.997a4.915 4.915 0 0 1 1.884-.357c.743 0 1.434.12 2.072.357a4.959 4.959 0 0 1 1.606.956l1.593-2.649a8.127 8.127 0 0 0-2.018-1.173c-.998-.406-2.082-.609-3.253-.609-1.172 0-2.256.203-3.254.61a7.869 7.869 0 0 0-2.58 1.677 7.762 7.762 0 0 0-1.702 2.525c-.412.971-.617 2.027-.617 3.167 0 1.14.205 2.195.617 3.166a7.762 7.762 0 0 0 1.702 2.525 7.853 7.853 0 0 0 2.58 1.678c.998.406 2.082.61 3.254.61 1.171 0 2.255-.204 3.253-.61a8.127 8.127 0 0 0 2.018-1.173l-1.593-2.649a4.959 4.959 0 0 1-1.606.956 5.883 5.883 0 0 1-2.072.357 4.915 4.915 0 0 1-1.884-.357 4.439 4.439 0 0 1-1.504-.997 4.64 4.64 0 0 1-.997-1.535 5.162 5.162 0 0 1-.365-1.97c0-.719.121-1.376.365-1.972a4.634 4.634 0 0 1 .997-1.536m63.885 10.31h-.278v-.255h.278c.07 0 .118.023.14.046.047.023.047.046.047.093 0 .046 0 .07-.046.093-.023.023-.07.023-.14.023zm.186.302a.605.605 0 0 0 .302-.14c.07-.07.094-.162.094-.278a.47.47 0 0 0-.14-.348.687.687 0 0 0-.418-.117h-.698v1.37h.397v-.487h.047l.37.488h.466l-.42-.488zm-.186-.302h-.278v-.255h.278c.07 0 .118.023.14.046.047.023.047.046.047.093 0 .046 0 .07-.046.093-.023.023-.07.023-.14.023zm.186.302a.605.605 0 0 0 .302-.14c.07-.07.094-.162.094-.278a.47.47 0 0 0-.14-.348.687.687 0 0 0-.418-.117h-.698v1.37h.397v-.487h.047l.37.488h.466l-.42-.488zm-.186-.302h-.278v-.255h.278c.07 0 .118.023.14.046.047.023.047.046.047.093 0 .046 0 .07-.046.093-.023.023-.07.023-.14.023zm.186.302a.605.605 0 0 0 .302-.14c.07-.07.094-.162.094-.278a.47.47 0 0 0-.14-.348.687.687 0 0 0-.418-.117h-.698v1.37h.397v-.487h.047l.37.488h.466l-.42-.488zm-.186-.302h-.278v-.255h.278c.07 0 .118.023.14.046.047.023.047.046.047.093 0 .046 0 .07-.046.093-.023.023-.07.023-.14.023zm.186.302a.605.605 0 0 0 .302-.14c.07-.07.094-.162.094-.278a.47.47 0 0 0-.14-.348.687.687 0 0 0-.418-.117h-.698v1.37h.397v-.487h.047l.37.488h.466l-.42-.488zm-.186-.302h-.278v-.255h.278c.07 0 .118.023.14.046.047.023.047.046.047.093 0 .046 0 .07-.046.093-.023.023-.07.023-.14.023zm.488.163c.07-.07.094-.163.094-.28a.47.47 0 0 0-.14-.347.687.687 0 0 0-.418-.117h-.698v1.37h.397v-.487h.047l.37.488h.466l-.42-.488a.605.605 0 0 0 .302-.14zm.465.37c-.069.14-.14.257-.233.373a1.936 1.936 0 0 1-.37.232 1.21 1.21 0 0 1-.418.093c-.162 0-.302-.046-.441-.093a1.913 1.913 0 0 1-.373-.232 1.998 1.998 0 0 1-.232-.372 1.363 1.363 0 0 1-.093-.441c0-.14.046-.28.093-.418.07-.14.14-.256.232-.372a1.94 1.94 0 0 1 .373-.232c.139-.047.279-.093.44-.093.14 0 .303.046.419.093.138.07.256.139.37.232.094.116.165.233.233.372a1.36 1.36 0 0 1 0 .859zm.441-1.021a1.878 1.878 0 0 0-.347-.488c-.14-.162-.303-.255-.512-.348a1.739 1.739 0 0 0-.603-.116c-.233 0-.441.046-.627.116-.21.093-.373.186-.512.348-.14.14-.256.302-.349.488a1.635 1.635 0 0 0-.115.58c0 .233.046.419.115.605.094.186.21.348.35.51.139.14.302.233.51.326.186.07.394.116.627.116a1.623 1.623 0 0 0 1.115-.441 2.51 2.51 0 0 0 .349-.511 1.64 1.64 0 0 0 .117-.604c0-.21-.048-.395-.118-.581zm-1.394.488h-.278v-.255h.278c.07 0 .118.023.14.046.047.023.047.046.047.093 0 .046 0 .07-.046.093-.023.023-.07.023-.14.023zm.186.302a.605.605 0 0 0 .302-.14c.07-.07.094-.162.094-.278a.47.47 0 0 0-.14-.348.687.687 0 0 0-.418-.117h-.698v1.37h.397v-.487h.047l.37.488h.466l-.42-.488zm-.186-.302h-.278v-.255h.278c.07 0 .118.023.14.046.047.023.047.046.047.093 0 .046 0 .07-.046.093-.023.023-.07.023-.14.023zm.186.302a.605.605 0 0 0 .302-.14c.07-.07.094-.162.094-.278a.47.47 0 0 0-.14-.348.687.687 0 0 0-.418-.117h-.698v1.37h.397v-.487h.047l.37.488h.466l-.42-.488zm-.186-.302h-.278v-.255h.278c.07 0 .118.023.14.046.047.023.047.046.047.093 0 .046 0 .07-.046.093-.023.023-.07.023-.14.023zm.186.302a.605.605 0 0 0 .302-.14c.07-.07.094-.162.094-.278a.47.47 0 0 0-.14-.348.687.687 0 0 0-.418-.117h-.698v1.37h.397v-.487h.047l.37.488h.466l-.42-.488zm-.186-.302h-.278v-.255h.278c.07 0 .118.023.14.046.047.023.047.046.047.093 0 .046 0 .07-.046.093-.023.023-.07.023-.14.023zm.186.302a.605.605 0 0 0 .302-.14c.07-.07.094-.162.094-.278a.47.47 0 0 0-.14-.348.687.687 0 0 0-.418-.117h-.698v1.37h.397v-.487h.047l.37.488h.466l-.42-.488z" fill="#fff" /><path d="M70.907 57.158c0-18.17 8.489-34.347 21.705-44.816C82.867 4.622 70.556 0 57.158 0 25.59 0 0 25.591 0 57.158s25.59 57.158 57.157 57.158c13.397 0 25.709-4.622 35.454-12.342-13.216-10.469-21.704-26.646-21.704-44.816" fill="#E01F26"/><path d="M70.907 57.158c0 18.17 8.489 34.347 21.705 44.816 13.216-10.469 21.704-26.646 21.704-44.816s-8.489-34.347-21.704-44.816C79.396 22.811 70.907 38.988 70.907 57.158" fill="#E76224"/><path d="M184.724 85.943l-.535 1.371-.533-1.37h-.722v2.136h.512v-1.487l.465 1.278h.534l.488-1.278v1.487h.487v-2.137h-.696zm-4.042 0v.465h.673v1.672h.488v-1.672h.674v-.465h-1.835zM128.065 0c-13.398 0-25.709 4.622-35.454 12.342 13.216 10.47 21.704 26.646 21.704 44.816s-8.488 34.347-21.704 44.816c9.745 7.72 22.056 12.342 35.454 12.342 31.567 0 57.158-25.59 57.158-57.158S159.633 0 128.065 0" fill="#F29D1E"/></g></svg>