<svg width="240" height="78" viewBox="0 0 240 78" xmlns="http://www.w3.org/2000/svg"><title>Fill 1</title><path d="M99.074 1.347L83.092 76.053h19.327l15.982-74.706H99.074zm100.63 48.248l10.174-28.061 5.855 28.061h-16.029zm23.834-48.248h-16.493c-3.717 0-6.853 2.16-8.223 5.482l-28.991 69.224h20.28l4.018-11.15h24.786l2.347 11.15h17.863L223.538 1.347zm-71.594 14.449c2.764-.349 10.407-.627 19.049 3.345l3.391-15.843C169.738 1.602 163.769 0 156.312 0c-19.095 0-32.545 10.151-32.638 24.693-.14 10.755 9.594 16.748 16.912 20.326 7.525 3.647 10.057 5.993 10.012 9.268-.048 5.018-5.994 7.225-11.546 7.318-9.733.139-15.354-2.625-19.862-4.716l-3.484 16.354c4.507 2.09 12.846 3.879 21.487 3.972 20.303 0 33.567-10.012 33.638-25.553.069-19.722-27.273-20.79-27.087-29.617.07-2.672 2.625-5.506 8.2-6.249zM70.501 1.347l-20.116 50.85-8.13-43.231c-.953-4.831-4.739-7.619-8.921-7.619H.464L0 3.531c6.736 1.463 14.426 3.833 19.071 6.341 2.834 1.557 3.647 2.904 4.576 6.574l15.401 59.607h20.443l31.29-74.706h-20.28z" fill="#160F3F" fill-rule="evenodd"/></svg>